# Rhino

v 0 -11.65651988983154 -93.3089599609375
v 0.5199759006500244 -11.65651988983154 -93.3089599609375
v 0 1148.302612304688 -93.3089599609375
v 0.5199759006500244 1148.302612304688 -93.3089599609375
v 0 1148.302612304688 -93.3089599609375
v 0.5199759006500244 1148.302612304688 -93.3089599609375
v 0 1148.302612304688 105.9791793823242
v 0.5199759006500244 1148.302612304688 105.9791793823242
v 0 1148.302612304688 105.9791793823242
v 0.5199759006500244 1148.302612304688 105.9791793823242
v 0 -11.65651988983154 105.9791793823242
v 0.5199759006500244 -11.65651988983154 105.9791793823242
v 0 -11.65651988983154 105.9791793823242
v 0.5199759006500244 -11.65651988983154 105.9791793823242
v 0 -11.65651988983154 -93.3089599609375
v 0.5199759006500244 -11.65651988983154 -93.3089599609375
v 0 -11.65651988983154 -93.3089599609375
v 0 1148.302612304688 -93.3089599609375
v 0 1148.302612304688 105.9791793823242
v 0 -11.65651988983154 105.9791793823242
v 0.5199759006500244 -11.65651988983154 -93.3089599609375
v 0.5199759006500244 1148.302612304688 -93.3089599609375
v 0.5199759006500244 1148.302612304688 105.9791793823242
v 0.5199759006500244 -11.65651988983154 105.9791793823242
vt 0 0
vt 0 0.5006511807441711
vt 0.4266917407512665 0
vt 0.4266917407512665 0.5006511807441711
vt 0.4266917407512665 0
vt 0.4266917407512665 0.5006511807441711
vt 0.5 0
vt 0.5 0.5006511807441711
vt 0.5 0
vt 0.5 0.5006511807441711
vt 0.9266917109489441 0
vt 0.9266917109489441 0.5006511807441711
vt 0.9266917109489441 0
vt 0.9266917109489441 0.5006511807441711
vt 1 0
vt 1 0.5006511807441711
vt 0 1
vt 0.4266917407512665 1
vt 0.4266917407512665 0.5006517171859741
vt 0 0.5006517171859741
vt 0.5733082890510559 0.5006517171859741
vt 1 0.5006517171859741
vt 1 1
vt 0.5733082890510559 1
vn 0 0 -1
vn 0 0 -1
vn 0 0 -1
vn 0 0 -1
vn 0 1 0
vn 0 1 0
vn 0 1 0
vn 0 1 0
vn 0 0 1
vn 0 0 1
vn 0 0 1
vn 0 0 1
vn 0 -1 0
vn 0 -1 0
vn 0 -1 0
vn 0 -1 0
vn -1 0 0
vn -1 0 0
vn -1 0 0
vn -1 0 0
vn 1 0 0
vn 1 0 0
vn 1 0 0
vn 1 0 0
f 1/1/1 3/3/3 4/4/4 2/2/2
f 5/5/5 7/7/7 8/8/8 6/6/6
f 9/9/9 11/11/11 12/12/12 10/10/10
f 13/13/13 15/15/15 16/16/16 14/14/14
f 18/18/18 17/17/17 20/20/20
f 20/20/20 19/19/19 18/18/18
f 22/22/22 24/24/24 21/21/21
f 24/24/24 22/22/22 23/23/23
